<svg width="24" height="24" viewBox="0 0 24 24" fill="none" xmlns="http://www.w3.org/2000/svg">
<path fill-rule="evenodd" clip-rule="evenodd" d="M18.3125 8.79633C18.3125 10.0523 18.625 10.7925 19.3125 11.6456C19.8335 12.2741 20 13.0808 20 13.956C20 14.8302 19.7297 15.6601 19.1881 16.3339C18.479 17.1417 17.4791 17.6573 16.4586 17.747C14.9797 17.8809 13.4999 17.9937 12.0005 17.9937C10.5001 17.9937 9.02122 17.9263 7.54236 17.747C6.5209 17.6573 5.52096 17.1417 4.81286 16.3339C4.27127 15.6601 4 14.8302 4 13.956C4 13.0808 4.16744 12.2741 4.68752 11.6456C5.39655 10.7925 5.6884 10.0523 5.6884 8.79633V8.3703C5.6884 6.68834 6.08313 5.58852 6.896 4.51186C8.10453 2.9417 10.0417 2 11.9584 2H12.0426C14.0004 2 16.0002 2.98702 17.1882 4.62466C17.959 5.67916 18.3125 6.73265 18.3125 8.3703V8.79633ZM9.24531 20.0609C9.24531 19.5573 9.68027 19.3267 10.0825 19.228C10.553 19.1222 13.42 19.1222 13.8905 19.228C14.2927 19.3267 14.7277 19.5573 14.7277 20.0609C14.7043 20.5403 14.4396 20.9653 14.0738 21.2353C13.5996 21.6281 13.043 21.8768 12.4612 21.9665C12.1394 22.0108 11.8233 22.0118 11.5127 21.9665C10.93 21.8768 10.3734 21.6281 9.90009 21.2343C9.53342 20.9653 9.2687 20.5403 9.24531 20.0609Z" fill="#D4D4D4"/>
</svg>
