<?xml version="1.0" encoding="utf-8"?>
<!-- Svg Vector Icons : http://www.onlinewebfonts.com/icon -->
<!DOCTYPE svg PUBLIC "-//W3C//DTD SVG 1.1//EN" "http://www.w3.org/Graphics/SVG/1.1/DTD/svg11.dtd">
<svg version="1.1" xmlns="http://www.w3.org/2000/svg" xmlns:xlink="http://www.w3.org/1999/xlink" x="0px" y="0px" viewBox="0 0 1000 1000" enable-background="new 0 0 1000 1000" xml:space="preserve">
<metadata> Svg Vector Icons : http://www.onlinewebfonts.com/icon </metadata>
<g><g transform="translate(0.000000,512.000000) scale(0.100000,-0.100000)"><path d="M4791.7,4989.2c-57.4-15.3-145.4-51.7-195.2-80.4C4466.5,4834.2,389.4,1648.7,309,1558.8c-86.1-95.7-139.7-199-176-340.6c-44-166.4-44-5204,0-5372.3c80.4-306.1,323.3-533.8,637.1-600.8c67-13.4,419-21,1023.6-21c1006.4,0,1058,3.8,1237.9,109.1c124.4,72.7,271.7,220,331,327.2c109.1,199,109.1,208.5,109.1,1572.7c0,985.3,5.7,1274.2,26.8,1348.8c89.9,338.6,359.7,585.5,700.2,639c162.6,26.8,1501.9,26.8,1664.5,0c327.1-51.7,593.1-279.3,690.7-593.1c34.5-109.1,36.4-193.3,36.4-1356.5c0-742.3,7.7-1280,19.1-1341.2c61.2-331,329.1-610.3,652.4-685c49.8-11.5,457.3-21,1012.1-21c991,0,1044.6,3.8,1228.3,97.6c109.1,55.5,277.4,218.1,342.5,332.9l55.5,95.7v2793.3v2793.3l-42.1,80.4c-24.9,44-74.6,114.8-114.8,155c-82.3,88-4234,3281.2-4346.9,3344.3C5220.3,5014.1,4988.8,5042.8,4791.7,4989.2z"/></g></g>
</svg>