<svg width="30" height="30" viewBox="0 0 30 30" fill="none" xmlns="http://www.w3.org/2000/svg">
<path d="M26.8952 8.36093C26.5073 7.45862 25.948 6.64096 25.2486 5.95372C24.5486 5.26443 23.7234 4.71666 22.8177 4.34019C21.8786 3.94828 20.8713 3.74767 19.8544 3.75002C18.4277 3.75002 17.0358 4.1425 15.8262 4.88385C15.5368 5.06119 15.2619 5.25598 15.0014 5.46821C14.741 5.25598 14.4661 5.06119 14.1767 4.88385C12.9671 4.1425 11.5751 3.75002 10.1484 3.75002C9.12113 3.75002 8.12564 3.94771 7.18514 4.34019C6.27647 4.71814 5.45751 5.26179 4.75431 5.95372C4.05399 6.64019 3.49455 7.45804 3.10771 8.36093C2.70546 9.29997 2.5 10.2972 2.5 11.3234C2.5 12.2915 2.69678 13.3004 3.08745 14.3266C3.41446 15.1843 3.88326 16.0739 4.48229 16.9722C5.43147 18.3939 6.7366 19.8766 8.35715 21.3796C11.0426 23.8711 13.7021 25.5922 13.815 25.662L14.5008 26.1039C14.8046 26.2987 15.1953 26.2987 15.4992 26.1039L16.185 25.662C16.2979 25.5893 18.9544 23.8711 21.6428 21.3796C23.2634 19.8766 24.5685 18.3939 25.5177 16.9722C26.1167 16.0739 26.5884 15.1843 26.9125 14.3266C27.3032 13.3004 27.5 12.2915 27.5 11.3234C27.5029 10.2972 27.2974 9.29997 26.8952 8.36093V8.36093Z" fill="black"/>
</svg>
