<?xml version="1.0" encoding="utf-8"?>
<!-- Svg Vector Icons : http://www.onlinewebfonts.com/icon -->
<!DOCTYPE svg PUBLIC "-//W3C//DTD SVG 1.1//EN" "http://www.w3.org/Graphics/SVG/1.1/DTD/svg11.dtd">
<svg version="1.1" xmlns="http://www.w3.org/2000/svg" xmlns:xlink="http://www.w3.org/1999/xlink" x="0px" y="0px" viewBox="0 0 1000 1000" enable-background="new 0 0 1000 1000" xml:space="preserve">
<metadata> Svg Vector Icons : http://www.onlinewebfonts.com/icon </metadata>
<g><path d="M916.4,892.7c0-179-147.4-334-317.7-334H405.3c-81,0-162.5,36.7-223.6,100.6C120.6,723.2,83.6,806.4,83.6,891c-0.2,4.4-1.5,43.9,25.3,72.2c11.5,12.2,32.7,26.8,68.1,26.8h645.9c35.4,0,56.6-14.6,68.2-26.8C918.4,934.3,916.5,894.3,916.4,892.7z"/><path d="M259.9,245.2c0,129.9,105.3,235.2,235.2,235.2c129.9,0,235.2-105.3,235.2-235.2C730.3,115.3,625,10,495.1,10C365.2,10,259.9,115.3,259.9,245.2L259.9,245.2z"/></g>
</svg>